<svg aria-hidden="true" style="position: absolute; width: 0; height: 0; overflow: hidden;" version="1.1" xmlns="http://www.w3.org/2000/svg" xmlns:xlink="http://www.w3.org/1999/xlink">
<defs>

<symbol id="icon-tel" viewBox="0 0 32 32">
<path fill="" style="fill:" d="M23 0h-14c-1.654 0-3 1.346-3 3v26c0 1.654 1.346 3 3 3h14c1.654 0 3-1.346 3-3v-26c0-1.654-1.346-3-3-3zM9 2h14c0.552 0 1 0.448 1 1v21h-16v-21c0-0.552 0.448-1 1-1zM23 30h-14c-0.552 0-1-0.448-1-1v-3h16v3c0 0.552-0.448 1-1 1z"></path>
</symbol>

<symbol id="icon-email" viewBox="0 0 32 32">
<path d="M28 4h-24c-1.65 0-2.985 1.35-2.985 3l-0.015 18c0 1.65 1.35 3 3 3h24c1.65 0 3-1.35 3-3v-18c0-1.65-1.35-3-3-3zM27.4 10.375l-10.605 6.63c-0.48 0.3-1.11 0.3-1.59 0l-10.605-6.63c-0.375-0.24-0.6-0.645-0.6-1.080 0-1.005 1.095-1.605 1.95-1.080l10.050 6.285 10.050-6.285c0.855-0.525 1.95 0.075 1.95 1.080 0 0.435-0.225 0.84-0.6 1.080z"></path>
</symbol>

<symbol id="icon-location" viewBox="0 0 32 32">
<path fill="" style="" d="M16 18c-0.989 0-1.956-0.293-2.778-0.843s-1.463-1.33-1.842-2.244c-0.378-0.914-0.477-1.919-0.285-2.889s0.669-1.861 1.368-2.56c0.699-0.699 1.59-1.175 2.56-1.368s1.975-0.094 2.889 0.285c0.914 0.378 1.695 1.019 2.244 1.842s0.843 1.789 0.843 2.778c-0.002 1.326-0.529 2.596-1.466 3.534s-2.208 1.465-3.534 1.466zM16 10c-0.593 0-1.173 0.176-1.667 0.506s-0.878 0.798-1.105 1.346c-0.227 0.548-0.286 1.151-0.171 1.733s0.401 1.116 0.821 1.536 0.954 0.705 1.536 0.821c0.582 0.116 1.185 0.056 1.733-0.171s1.017-0.612 1.346-1.105 0.506-1.073 0.506-1.667c-0.001-0.795-0.317-1.558-0.88-2.12s-1.325-0.879-2.12-0.88z"></path>
<path fill="" style="" d="M16 30l-8.436-9.949c-0.117-0.149-0.233-0.3-0.348-0.451-1.441-1.898-2.22-4.217-2.216-6.6 0-2.917 1.159-5.715 3.222-7.778s4.861-3.222 7.778-3.222c2.917 0 5.715 1.159 7.778 3.222s3.222 4.861 3.222 7.778c0.003 2.382-0.775 4.7-2.215 6.597l-0.001 0.003c0 0-0.3 0.394-0.345 0.447l-8.439 9.953zM8.813 18.395c0 0 0.233 0.308 0.286 0.374l6.901 8.139 6.91-8.15c0.044-0.055 0.278-0.365 0.279-0.366 1.177-1.551 1.813-3.445 1.811-5.392 0-2.387-0.948-4.676-2.636-6.364s-3.977-2.636-6.364-2.636-4.676 0.948-6.364 2.636c-1.688 1.688-2.636 3.977-2.636 6.364-0.002 1.948 0.635 3.843 1.813 5.395z"></path>
</symbol>

<symbol id="icon-facebook" viewBox="0 0 32 32">
<path fill="#3d5a98" style="fill: var(--color1, #3d5a98)" d="M29.163 1.208h-26.323c-0.902 0-1.633 0.731-1.633 1.633v26.323c0 0.902 0.731 1.633 1.633 1.633h26.323c0.902 0 1.632-0.731 1.632-1.633v-26.323c0-0.902-0.731-1.633-1.632-1.633z"></path>
<path fill="#fff" style="fill: var(--color2, #fff)" d="M21.62 30.793v-11.457h3.845l0.575-4.465h-4.42v-2.85c0-1.293 0.36-2.175 2.213-2.175h2.365v-4c-1.145-0.119-2.296-0.176-3.447-0.17-3.405 0-5.75 2.075-5.75 5.902v3.293h-3.845v4.465h3.845v11.457h4.62z"></path>
</symbol>

<symbol id="icon-menu-hamburger" viewBox="0 0 47 32">
<path stroke-linejoin="round" stroke-linecap="round" stroke-miterlimit="4" stroke-width="4.3636" d="M1.96 29.154h42.965M1.96 15.615h42.965M1.96 2.077h42.965"></path>
</symbol>

<symbol id="icon-modal-close" viewBox="0 0 32 32">
<path d="M26.667 7.303l-1.97-1.97-7.808 7.808-7.808-7.808-1.97 1.97 7.808 7.808-7.808 7.808 1.97 1.97 7.808-7.808 7.808 7.808 1.97-1.97-7.808-7.808 7.808-7.808z"></path>
</symbol>

<symbol id="icon-logo" viewBox="0 0 66 32">
<path fill="#4d4d4d" style="fill: var(--color1, #4d4d4d)" d="M0 32h65.6v-32h-65.6v32z"></path>
<path fill="#fddc66" style="fill: var(--color2, #fddc66)" d="M1.122 31.147h63.356v-30.292h-63.356v30.292z"></path>
<path fill="#3865b0" style="fill: var(--color3, #3865b0)" d="M2.395 30.293h60.809v-28.585h-60.809v28.585z"></path>
<path fill="#221e1f" style="fill: var(--color4, #221e1f)" d="M12.119 25.226h-1.155v0.549h1.052v0.707h-1.052v1.286h-0.961v-3.25h2.116z"></path>
<path fill="#221e1f" style="fill: var(--color4, #221e1f)" d="M15.504 24.519v1.759c0 0.143 0.003 0.248 0.008 0.316 0.009 0.116 0.053 0.22 0.13 0.312 0.056 0.065 0.127 0.116 0.214 0.151s0.182 0.053 0.286 0.053c0.109 0 0.21-0.019 0.305-0.057s0.17-0.091 0.226-0.159c0.054-0.065 0.090-0.137 0.107-0.216s0.026-0.213 0.026-0.4v-1.759h0.961v1.873c0 0.199-0.018 0.365-0.054 0.5-0.056 0.216-0.19 0.411-0.401 0.585-0.298 0.249-0.698 0.373-1.201 0.373-0.237 0-0.462-0.034-0.676-0.102s-0.388-0.161-0.519-0.279c-0.135-0.119-0.231-0.259-0.287-0.422s-0.083-0.381-0.083-0.656v-1.873z"></path>
<path fill="#221e1f" style="fill: var(--color4, #221e1f)" d="M26.634 27.768v-3.249h0.961l1.766 1.987v-1.987h0.96v3.249h-0.96l-1.766-1.99v1.99z"></path>
<path fill="#221e1f" style="fill: var(--color4, #221e1f)" d="M33.096 27.768h0.96v-3.249h-0.96v3.249z"></path>
<path fill="#221e1f" style="fill: var(--color4, #221e1f)" d="M38.771 25.226v2.542h-0.96v-2.542h-0.781v-0.708h2.537v0.708z"></path>
<path fill="#221e1f" style="fill: var(--color4, #221e1f)" d="M43.192 24.519v1.759c0 0.143 0.003 0.248 0.008 0.316 0.009 0.116 0.052 0.22 0.13 0.312 0.056 0.065 0.127 0.116 0.214 0.151s0.182 0.053 0.286 0.053c0.109 0 0.21-0.019 0.305-0.057s0.17-0.091 0.226-0.159c0.054-0.065 0.089-0.137 0.107-0.216s0.026-0.213 0.026-0.4v-1.759h0.96v1.873c0 0.199-0.018 0.365-0.054 0.5-0.056 0.216-0.19 0.411-0.401 0.585-0.298 0.249-0.698 0.373-1.201 0.373-0.236 0-0.462-0.034-0.676-0.102s-0.388-0.161-0.519-0.279c-0.135-0.119-0.231-0.259-0.287-0.422s-0.084-0.381-0.084-0.656v-1.873z"></path>
<path fill="#221e1f" style="fill: var(--color4, #221e1f)" d="M49.253 25.971h0.228c0.258 0 0.443-0.037 0.556-0.111 0.053-0.035 0.097-0.080 0.132-0.135s0.052-0.108 0.052-0.159c0-0.050-0.016-0.103-0.051-0.157-0.033-0.055-0.077-0.099-0.133-0.134-0.113-0.074-0.298-0.111-0.556-0.111h-0.228v0.807zM50.465 26.435l1.481 1.333h-1.526l-1.167-1.247v1.247h-1.226v-3.249h1.906c0.29 0 0.533 0.027 0.73 0.081s0.366 0.143 0.506 0.263c0.104 0.089 0.184 0.19 0.24 0.305s0.084 0.231 0.084 0.351c0 0.133-0.034 0.261-0.1 0.384s-0.158 0.225-0.273 0.304c-0.085 0.059-0.177 0.105-0.276 0.14s-0.226 0.064-0.38 0.088z"></path>
<path fill="#221e1f" style="fill: var(--color4, #221e1f)" d="M21.91 25.971h0.228c0.258 0 0.443-0.037 0.556-0.111 0.053-0.035 0.097-0.080 0.131-0.135s0.052-0.108 0.052-0.159c0-0.050-0.017-0.103-0.050-0.157s-0.077-0.099-0.133-0.134c-0.113-0.074-0.298-0.111-0.556-0.111h-0.228v0.807zM23.121 26.435l1.482 1.333h-1.526l-1.167-1.247v1.247h-1.226v-3.249h1.906c0.29 0 0.534 0.027 0.73 0.081s0.366 0.143 0.506 0.263c0.104 0.089 0.184 0.19 0.24 0.305s0.085 0.231 0.085 0.351c0 0.133-0.033 0.261-0.1 0.384s-0.158 0.225-0.273 0.304c-0.085 0.059-0.177 0.105-0.276 0.14s-0.225 0.064-0.38 0.088z"></path>
<path fill="#221e1f" style="fill: var(--color4, #221e1f)" d="M56.168 25.226h-1.142v0.549h1.079v0.707h-1.079v0.579h1.142v0.707h-2.102v-3.25h2.102z"></path>
<path fill="#fff" style="fill: var(--color5, #fff)" d="M12.119 24.847h-1.155v0.549h1.052v0.707h-1.052v1.286h-0.961v-3.25h2.116z"></path>
<path fill="#fff" style="fill: var(--color5, #fff)" d="M15.504 24.14v1.759c0 0.143 0.003 0.248 0.008 0.316 0.009 0.116 0.053 0.22 0.13 0.312 0.056 0.065 0.127 0.116 0.214 0.151s0.182 0.053 0.286 0.053c0.109 0 0.21-0.019 0.305-0.057s0.17-0.091 0.226-0.159c0.054-0.065 0.090-0.137 0.107-0.216s0.026-0.213 0.026-0.4v-1.759h0.961v1.873c0 0.199-0.018 0.365-0.054 0.5-0.056 0.216-0.19 0.411-0.401 0.585-0.298 0.249-0.698 0.374-1.201 0.374-0.237 0-0.462-0.034-0.676-0.102s-0.388-0.161-0.519-0.279c-0.135-0.119-0.231-0.259-0.287-0.422s-0.083-0.381-0.083-0.656v-1.873z"></path>
<path fill="#fff" style="fill: var(--color5, #fff)" d="M26.634 27.389v-3.249h0.961l1.766 1.987v-1.987h0.96v3.249h-0.96l-1.766-1.99v1.99z"></path>
<path fill="#fff" style="fill: var(--color5, #fff)" d="M33.096 27.389h0.96v-3.249h-0.96v3.249z"></path>
<path fill="#fff" style="fill: var(--color5, #fff)" d="M38.771 24.847v2.542h-0.96v-2.542h-0.781v-0.708h2.537v0.708z"></path>
<path fill="#fff" style="fill: var(--color5, #fff)" d="M43.192 24.14v1.759c0 0.143 0.003 0.248 0.008 0.316 0.009 0.116 0.052 0.22 0.13 0.312 0.056 0.065 0.127 0.116 0.214 0.151s0.182 0.053 0.286 0.053c0.109 0 0.21-0.019 0.305-0.057s0.17-0.091 0.226-0.159c0.054-0.065 0.089-0.137 0.107-0.216s0.026-0.213 0.026-0.4v-1.759h0.96v1.873c0 0.199-0.018 0.365-0.054 0.5-0.056 0.216-0.19 0.411-0.401 0.585-0.298 0.249-0.698 0.374-1.201 0.374-0.236 0-0.462-0.034-0.676-0.102s-0.388-0.161-0.519-0.279c-0.135-0.119-0.231-0.259-0.287-0.422s-0.084-0.381-0.084-0.656v-1.873z"></path>
<path fill="#fff" style="fill: var(--color5, #fff)" d="M49.253 25.591h0.228c0.258 0 0.443-0.037 0.556-0.111 0.053-0.035 0.097-0.080 0.132-0.135s0.052-0.108 0.052-0.159-0.016-0.103-0.051-0.157c-0.033-0.055-0.077-0.099-0.133-0.134-0.113-0.074-0.298-0.111-0.556-0.111h-0.228v0.807zM50.465 26.055l1.481 1.333h-1.526l-1.167-1.247v1.247h-1.226v-3.249h1.906c0.29 0 0.533 0.027 0.73 0.082s0.366 0.143 0.506 0.263c0.104 0.089 0.184 0.19 0.24 0.305s0.084 0.231 0.084 0.351c0 0.133-0.034 0.261-0.1 0.384s-0.158 0.225-0.273 0.304c-0.085 0.059-0.177 0.105-0.276 0.14s-0.226 0.064-0.38 0.088z"></path>
<path fill="#fff" style="fill: var(--color5, #fff)" d="M21.91 25.591h0.228c0.258 0 0.443-0.037 0.556-0.111 0.053-0.035 0.097-0.080 0.131-0.135s0.052-0.108 0.052-0.159-0.017-0.103-0.050-0.157c-0.033-0.055-0.077-0.099-0.133-0.134-0.113-0.074-0.298-0.111-0.556-0.111h-0.228v0.807zM23.121 26.055l1.482 1.333h-1.526l-1.167-1.247v1.247h-1.226v-3.249h1.906c0.29 0 0.534 0.027 0.73 0.082s0.366 0.143 0.506 0.263c0.104 0.089 0.184 0.19 0.24 0.305s0.085 0.231 0.085 0.351c0 0.133-0.033 0.261-0.1 0.384s-0.158 0.225-0.273 0.304c-0.085 0.059-0.177 0.105-0.276 0.14s-0.225 0.064-0.38 0.088z"></path>
<path fill="#fff" style="fill: var(--color5, #fff)" d="M56.168 24.847h-1.142v0.549h1.079v0.707h-1.079v0.579h1.142v0.707h-2.102v-3.25h2.102z"></path>
<path fill="#fddc66" style="fill: var(--color2, #fddc66)" d="M12.494 7.971l1.909 6.564h0.073l1.909-6.564h2.855l-3.073 9.309h-3.455l-3.073-9.309h2.855zM21.965 17.28v-6.982h2.509v6.982h-2.509zM23.219 9.571c-0.339 0-0.63-0.112-0.873-0.336s-0.364-0.494-0.364-0.809c0-0.315 0.121-0.585 0.364-0.809s0.533-0.336 0.873-0.336c0.342 0 0.633 0.112 0.873 0.336 0.242 0.224 0.364 0.494 0.364 0.809s-0.121 0.585-0.364 0.809c-0.239 0.224-0.53 0.336-0.873 0.336zM31.708 10.298v1.818h-4.6v-1.818h4.6zM27.999 8.625h2.509v6.409c0 0.097 0.017 0.179 0.050 0.245 0.033 0.064 0.085 0.112 0.155 0.145 0.070 0.030 0.159 0.045 0.268 0.045 0.076 0 0.164-0.009 0.264-0.027 0.103-0.018 0.179-0.033 0.227-0.045l0.364 1.764c-0.112 0.033-0.273 0.074-0.482 0.123-0.206 0.048-0.452 0.080-0.736 0.095-0.576 0.030-1.059-0.029-1.45-0.177-0.391-0.152-0.685-0.389-0.882-0.714s-0.292-0.73-0.286-1.218v-6.645zM36.469 17.389c-0.445 0-0.839-0.073-1.182-0.218-0.34-0.148-0.606-0.373-0.8-0.673s-0.291-0.682-0.291-1.145c0-0.382 0.065-0.708 0.195-0.977 0.131-0.273 0.312-0.495 0.546-0.668s0.505-0.305 0.814-0.395c0.312-0.091 0.648-0.15 1.009-0.177 0.391-0.030 0.705-0.067 0.941-0.109 0.239-0.045 0.412-0.108 0.518-0.186 0.106-0.082 0.159-0.189 0.159-0.323v-0.018c0-0.182-0.070-0.321-0.209-0.418s-0.318-0.145-0.536-0.145c-0.239 0-0.435 0.053-0.586 0.159-0.148 0.103-0.238 0.262-0.268 0.477h-2.309c0.030-0.424 0.165-0.815 0.404-1.173 0.243-0.361 0.596-0.648 1.059-0.864 0.464-0.218 1.042-0.327 1.736-0.327 0.5 0 0.948 0.059 1.345 0.177 0.397 0.115 0.735 0.277 1.014 0.486 0.279 0.206 0.491 0.448 0.636 0.727 0.148 0.276 0.223 0.576 0.223 0.9v4.782h-2.346v-0.982h-0.054c-0.14 0.261-0.309 0.471-0.509 0.632-0.197 0.161-0.423 0.277-0.677 0.35-0.252 0.073-0.529 0.109-0.832 0.109zM37.287 15.807c0.191 0 0.37-0.039 0.536-0.118 0.17-0.079 0.308-0.192 0.413-0.341s0.159-0.329 0.159-0.541v-0.582c-0.067 0.027-0.138 0.053-0.214 0.077-0.073 0.024-0.152 0.047-0.236 0.068-0.082 0.021-0.17 0.041-0.264 0.059-0.091 0.018-0.186 0.035-0.286 0.050-0.194 0.030-0.353 0.080-0.477 0.15-0.121 0.067-0.212 0.15-0.273 0.25-0.058 0.097-0.086 0.206-0.086 0.327 0 0.194 0.068 0.342 0.204 0.445s0.311 0.155 0.523 0.155zM46.387 7.971v9.309h-2.509v-9.309h2.509zM50.985 19.898c-0.288 0-0.562-0.023-0.823-0.068-0.261-0.042-0.49-0.102-0.686-0.177l0.545-1.782c0.206 0.073 0.394 0.12 0.564 0.141 0.173 0.021 0.32 0.009 0.441-0.036 0.124-0.045 0.213-0.132 0.268-0.259l0.054-0.127-2.454-7.291h2.618l1.127 4.836h0.073l1.146-4.836h2.636l-2.546 7.564c-0.127 0.385-0.312 0.73-0.555 1.036-0.239 0.309-0.555 0.553-0.945 0.732s-0.879 0.268-1.464 0.268z"></path>
</symbol>

<symbol id="icon-7-years" viewBox="0 0 32 32">
<path fill="#fff" style="fill: var(--color1, #fff)" d="M12.357 25.257c0-0.281 0.075-0.501 0.226-0.66s0.346-0.238 0.584-0.238c0.156 0 0.297 0.037 0.423 0.112s0.221 0.179 0.287 0.312 0.099 0.285 0.099 0.455c0 0.172-0.034 0.325-0.104 0.461s-0.168 0.238-0.295 0.308c-0.127 0.070-0.264 0.105-0.411 0.105-0.159 0-0.302-0.039-0.427-0.115s-0.221-0.182-0.285-0.315-0.097-0.274-0.097-0.423zM12.588 25.26c0 0.204 0.055 0.365 0.165 0.482s0.247 0.176 0.413 0.176c0.168 0 0.307-0.059 0.416-0.178s0.163-0.287 0.163-0.505c0-0.138-0.023-0.258-0.070-0.361s-0.115-0.183-0.204-0.239c-0.090-0.057-0.19-0.085-0.302-0.085-0.159 0-0.295 0.055-0.409 0.163s-0.172 0.291-0.172 0.546z"></path>
<path fill="#fff" style="fill: var(--color1, #fff)" d="M14.238 26.551v-1.696h0.189v0.159c0.045-0.062 0.095-0.109 0.151-0.14s0.124-0.047 0.205-0.047c0.105 0 0.197 0.027 0.277 0.081s0.141 0.13 0.181 0.228c0.041 0.098 0.061 0.206 0.061 0.323 0 0.125-0.022 0.239-0.067 0.339s-0.11 0.177-0.196 0.231-0.176 0.080-0.271 0.080c-0.069 0-0.131-0.014-0.187-0.044s-0.1-0.066-0.136-0.111v0.597l-0.208-0zM14.426 25.475c0 0.158 0.032 0.275 0.096 0.35s0.141 0.113 0.232 0.113c0.092 0 0.171-0.039 0.237-0.117s0.099-0.199 0.099-0.363c0-0.156-0.032-0.273-0.096-0.351s-0.141-0.117-0.23-0.117c-0.089 0-0.167 0.041-0.235 0.124s-0.102 0.203-0.102 0.361z"></path>
<path fill="#fff" style="fill: var(--color1, #fff)" d="M16.007 25.895l0.030 0.183c-0.059 0.012-0.111 0.019-0.157 0.019-0.075 0-0.134-0.012-0.176-0.036s-0.071-0.055-0.088-0.094c-0.017-0.039-0.025-0.121-0.025-0.245v-0.706h-0.152v-0.162h0.152v-0.304l0.207-0.125v0.429h0.209v0.162h-0.209v0.717c0 0.059 0.003 0.098 0.011 0.114s0.019 0.030 0.036 0.041c0.017 0.010 0.040 0.015 0.071 0.015 0.023 0 0.054-0.002 0.091-0.008z"></path>
<path fill="#fff" style="fill: var(--color1, #fff)" d="M16.212 24.627v-0.239h0.208v0.239h-0.208zM16.212 26.081v-1.226h0.208v1.226h-0.208z"></path>
<path fill="#fff" style="fill: var(--color1, #fff)" d="M16.659 25.468c0-0.227 0.063-0.395 0.189-0.505 0.105-0.091 0.234-0.136 0.386-0.136 0.169 0 0.306 0.055 0.413 0.166s0.161 0.263 0.161 0.458c0 0.158-0.024 0.282-0.071 0.372s-0.116 0.161-0.207 0.211c-0.090 0.050-0.189 0.075-0.296 0.075-0.172 0-0.31-0.055-0.416-0.165s-0.159-0.269-0.159-0.476zM16.872 25.468c0 0.157 0.034 0.275 0.103 0.353s0.155 0.117 0.259 0.117c0.103 0 0.189-0.039 0.258-0.118s0.103-0.198 0.103-0.359c0-0.152-0.035-0.267-0.103-0.345s-0.154-0.117-0.257-0.117c-0.104 0-0.19 0.039-0.259 0.117s-0.103 0.195-0.103 0.353z"></path>
<path fill="#fff" style="fill: var(--color1, #fff)" d="M18.052 26.081v-1.226h0.187v0.174c0.090-0.135 0.22-0.202 0.391-0.202 0.074 0 0.142 0.014 0.204 0.040s0.108 0.061 0.139 0.105c0.031 0.043 0.052 0.094 0.065 0.154 0.008 0.038 0.012 0.106 0.012 0.202v0.754h-0.208v-0.746c0-0.085-0.008-0.148-0.024-0.19s-0.045-0.076-0.086-0.101-0.090-0.038-0.145-0.038c-0.088 0-0.165 0.028-0.229 0.084s-0.096 0.163-0.096 0.32v0.67l-0.208 0z"></path>
<path fill="#fff" style="fill: var(--color1, #fff)" d="M19.284 25.715l0.206-0.032c0.012 0.082 0.044 0.146 0.096 0.189s0.127 0.066 0.221 0.066c0.096 0 0.166-0.019 0.212-0.058s0.069-0.084 0.069-0.137c0-0.047-0.020-0.084-0.061-0.111-0.028-0.018-0.099-0.042-0.212-0.070-0.152-0.038-0.258-0.072-0.317-0.1s-0.104-0.067-0.134-0.117c-0.031-0.050-0.046-0.105-0.046-0.165 0-0.055 0.013-0.105 0.038-0.152s0.059-0.085 0.102-0.116c0.032-0.024 0.076-0.044 0.132-0.061s0.116-0.025 0.18-0.025c0.096 0 0.181 0.014 0.253 0.042s0.126 0.065 0.161 0.113c0.035 0.047 0.058 0.111 0.072 0.19l-0.203 0.028c-0.009-0.063-0.036-0.113-0.080-0.148s-0.107-0.053-0.188-0.053c-0.096 0-0.164 0.016-0.205 0.047s-0.061 0.069-0.061 0.111c0 0.027 0.009 0.051 0.025 0.073s0.043 0.041 0.080 0.055c0.021 0.008 0.082 0.026 0.183 0.053 0.147 0.039 0.25 0.071 0.308 0.096s0.104 0.061 0.137 0.109c0.033 0.048 0.049 0.107 0.049 0.178 0 0.069-0.020 0.135-0.061 0.196s-0.099 0.109-0.175 0.142c-0.076 0.034-0.163 0.050-0.259 0.050-0.159 0-0.281-0.033-0.364-0.099s-0.137-0.164-0.16-0.294z"></path>
<path fill="#fff" style="fill: var(--color1, #fff)" d="M10.301 20.895v0.485h-1.268v0.606h1.099v0.448h-1.099v1.084h-0.577v-2.623h1.844z"></path>
<path fill="#fff" style="fill: var(--color1, #fff)" d="M11.213 20.895v2.623h-0.577v-2.623h0.577z"></path>
<path fill="#fff" style="fill: var(--color1, #fff)" d="M12.293 20.895l1.095 1.76h0.007v-1.76h0.54v2.623h-0.577l-1.091-1.756h-0.007v1.756h-0.54v-2.623h0.573z"></path>
<path fill="#fff" style="fill: var(--color1, #fff)" d="M15.751 20.895l0.981 2.623h-0.599l-0.198-0.584h-0.981l-0.206 0.584h-0.581l0.992-2.623h0.592zM15.784 22.505l-0.331-0.963h-0.007l-0.342 0.963h0.68z"></path>
<path fill="#fff" style="fill: var(--color1, #fff)" d="M17.533 20.895l1.095 1.76h0.007v-1.76h0.54v2.623h-0.577l-1.091-1.756h-0.007v1.756h-0.54v-2.623h0.573z"></path>
<path fill="#fff" style="fill: var(--color1, #fff)" d="M21.365 21.595c-0.035-0.055-0.077-0.103-0.129-0.145s-0.11-0.074-0.175-0.097c-0.065-0.023-0.133-0.035-0.204-0.035-0.13 0-0.24 0.025-0.331 0.075s-0.164 0.118-0.22 0.202c-0.056 0.084-0.098 0.181-0.123 0.288s-0.038 0.219-0.038 0.334c0 0.11 0.013 0.217 0.038 0.322s0.067 0.198 0.123 0.281c0.056 0.084 0.13 0.15 0.22 0.2s0.201 0.075 0.331 0.075c0.177 0 0.314-0.054 0.413-0.162s0.16-0.25 0.182-0.426h0.559c-0.015 0.164-0.053 0.312-0.114 0.445s-0.142 0.245-0.243 0.338c-0.101 0.093-0.218 0.164-0.353 0.213s-0.283 0.073-0.444 0.073c-0.201 0-0.381-0.035-0.542-0.105s-0.296-0.166-0.406-0.288c-0.11-0.123-0.195-0.266-0.253-0.432s-0.088-0.344-0.088-0.535c0-0.196 0.029-0.378 0.088-0.546s0.143-0.314 0.253-0.439c0.11-0.125 0.246-0.223 0.406-0.294s0.341-0.107 0.542-0.107c0.145 0 0.281 0.021 0.41 0.062s0.243 0.102 0.345 0.182c0.102 0.079 0.185 0.178 0.252 0.296s0.108 0.252 0.125 0.404h-0.559c-0.010-0.066-0.032-0.126-0.066-0.182z"></path>
<path fill="#fff" style="fill: var(--color1, #fff)" d="M24.367 20.895v0.485h-1.385v0.562h1.271v0.448h-1.271v0.643h1.415v0.485h-1.991v-2.623h1.962z"></path>
<path fill="#fff" style="fill: var(--color1, #fff)" d="M21.918 8.45c-0.75-0.314-1.5-0.434-2.25-0.434-2.38 0-4.761 1.205-7.142 1.205-0.597 0-1.194-0.076-1.791-0.265-0.067-0.021-0.134-0.031-0.2-0.031-0.333 0-0.623 0.258-0.623 0.615v6.132c0 0.244 0.14 0.476 0.364 0.569 0.75 0.315 1.5 0.434 2.25 0.434 2.381 0 4.762-1.205 7.142-1.205 0.597 0 1.194 0.076 1.791 0.265 0.067 0.021 0.134 0.031 0.2 0.031 0.333 0 0.623-0.257 0.623-0.615v-6.132c0-0.244-0.14-0.475-0.364-0.57zM10.839 9.953c0.389 0.097 0.795 0.146 1.212 0.172-0.114 0.568-0.613 0.996-1.212 0.996v-1.169zM10.839 15.462v-0.924c0.664 0 1.202 0.527 1.232 1.187-0.435-0.035-0.842-0.122-1.232-0.263zM16.097 14.201c-0.854 0-1.546-0.831-1.546-1.855s0.692-1.856 1.546-1.856 1.546 0.831 1.546 1.856c0 1.025-0.692 1.855-1.546 1.855zM21.354 14.738c-0.339-0.085-0.69-0.133-1.050-0.163 0.113-0.504 0.531-0.887 1.050-0.953v1.116zM21.354 10.174c-0.597-0.076-1.061-0.574-1.079-1.19 0.378 0.042 0.736 0.12 1.079 0.245v0.945z"></path>
<path fill="#5f424e" style="fill: var(--color2, #5f424e)" d="M14.928 0.369c0.64-0.492 1.687-0.492 2.327 0l0.375 0.288c0.64 0.492 1.798 0.707 2.573 0.478l0.454-0.134c0.775-0.229 1.752 0.147 2.17 0.836l0.245 0.404c0.418 0.689 1.419 1.305 2.225 1.371l0.473 0.038c0.806 0.065 1.58 0.767 1.719 1.559l0.082 0.465c0.14 0.792 0.849 1.726 1.577 2.077l0.427 0.205c0.728 0.351 1.195 1.283 1.037 2.072l-0.092 0.462c-0.157 0.789 0.165 1.915 0.717 2.504l0.323 0.345c0.552 0.588 0.648 1.625 0.215 2.304l-0.254 0.398c-0.433 0.679-0.542 1.846-0.241 2.592l0.176 0.438c0.301 0.746 0.015 1.748-0.636 2.225l-0.382 0.28c-0.651 0.477-1.175 1.526-1.167 2.33l0.006 0.471c0.009 0.804-0.623 1.636-1.403 1.846l-0.457 0.125c-0.78 0.211-1.651 1-1.934 1.754l-0.166 0.441c-0.283 0.754-1.174 1.301-1.978 1.218l-0.471-0.048c-0.804-0.083-1.903 0.34-2.441 0.94l-0.315 0.352c-0.538 0.6-1.567 0.792-2.287 0.425l-0.422-0.215c-0.72-0.367-1.897-0.367-2.617 0l-0.422 0.215c-0.719 0.367-1.748 0.175-2.287-0.425l-0.315-0.352c-0.538-0.601-1.636-1.024-2.441-0.94l-0.472 0.048c-0.804 0.083-1.694-0.465-1.977-1.218l-0.167-0.441c-0.283-0.753-1.154-1.542-1.934-1.754l-0.457-0.125c-0.78-0.211-1.411-1.042-1.403-1.846l0.006-0.471c0.009-0.804-0.516-1.853-1.166-2.33l-0.381-0.28c-0.651-0.477-0.937-1.479-0.637-2.225l0.176-0.438c0.3-0.747 0.192-1.913-0.241-2.592l-0.254-0.398c-0.434-0.679-0.337-1.716 0.215-2.304l0.323-0.345c0.552-0.588 0.874-1.715 0.717-2.504l-0.092-0.462c-0.158-0.789 0.309-1.721 1.037-2.072l0.427-0.205c0.728-0.351 1.438-1.285 1.577-2.077l0.082-0.464c0.14-0.793 0.913-1.494 1.719-1.559l0.473-0.038c0.806-0.065 1.807-0.682 2.225-1.371l0.245-0.404c0.418-0.688 1.395-1.065 2.17-0.836l0.455 0.134c0.775 0.229 1.933 0.014 2.573-0.478l0.374-0.288z"></path>
<path fill="none" stroke="#fff" style="stroke: var(--color1, #fff)" stroke-linejoin="miter" stroke-linecap="butt" stroke-miterlimit="4" stroke-width="0.6318" d="M15.075 2.334c0.559-0.43 1.474-0.43 2.033 0l0.328 0.251c0.559 0.429 1.571 0.617 2.249 0.417l0.397-0.117c0.677-0.2 1.53 0.128 1.895 0.73l0.214 0.352c0.365 0.601 1.241 1.139 1.944 1.196l0.413 0.033c0.704 0.057 1.38 0.669 1.502 1.361l0.071 0.406c0.122 0.691 0.742 1.507 1.378 1.813l0.373 0.179c0.636 0.306 1.044 1.119 0.907 1.808l-0.081 0.404c-0.137 0.689 0.144 1.672 0.626 2.185l0.282 0.301c0.482 0.513 0.566 1.418 0.188 2.010l-0.222 0.348c-0.379 0.593-0.474 1.611-0.211 2.263l0.154 0.382c0.263 0.651 0.013 1.526-0.556 1.942l-0.334 0.245c-0.569 0.416-1.027 1.332-1.019 2.034l0.004 0.412c0.009 0.702-0.543 1.427-1.225 1.612l-0.399 0.108c-0.681 0.184-1.442 0.874-1.69 1.531l-0.145 0.386c-0.248 0.657-1.026 1.135-1.728 1.063l-0.412-0.042c-0.703-0.073-1.663 0.297-2.133 0.821l-0.275 0.307c-0.471 0.524-1.369 0.691-1.998 0.371l-0.369-0.188c-0.629-0.32-1.658-0.32-2.288 0l-0.368 0.188c-0.629 0.32-1.528 0.152-1.999-0.371l-0.276-0.307c-0.47-0.525-1.43-0.894-2.132-0.821l-0.413 0.042c-0.703 0.073-1.48-0.406-1.729-1.064l-0.145-0.385c-0.248-0.657-1.009-1.346-1.691-1.531l-0.399-0.108c-0.682-0.184-1.234-0.91-1.225-1.612l0.004-0.412c0.008-0.701-0.45-1.617-1.019-2.034l-0.334-0.245c-0.569-0.416-0.819-1.29-0.556-1.942l0.154-0.382c0.262-0.652 0.168-1.67-0.211-2.263l-0.222-0.348c-0.379-0.592-0.295-1.497 0.187-2.010l0.282-0.301c0.482-0.513 0.763-1.497 0.626-2.185l-0.080-0.404c-0.138-0.689 0.27-1.502 0.906-1.808l0.373-0.179c0.636-0.306 1.256-1.121 1.378-1.813l0.072-0.405c0.122-0.691 0.798-1.304 1.502-1.361l0.413-0.033c0.704-0.057 1.58-0.595 1.944-1.196l0.214-0.352c0.365-0.601 1.219-0.93 1.896-0.73l0.397 0.117c0.677 0.2 1.689 0.012 2.248-0.417l0.327-0.251z"></path>
<path fill="#fff" style="fill: var(--color1, #fff)" d="M20.992 22.943c-0.008 0.018-0.012 0.037-0.013 0.056 0 0.041 0.026 0.082 0.076 0.125s0.116 0.083 0.198 0.119c0.187 0.080 0.389 0.122 0.592 0.123 0.273 0 0.471-0.041 0.593-0.121s0.183-0.184 0.183-0.31c0.002-0.054-0.014-0.107-0.045-0.151-0.032-0.042-0.076-0.074-0.125-0.093-0.060-0.024-0.122-0.039-0.186-0.046-0.075-0.009-0.15-0.013-0.226-0.013-0.132 0-0.273-0.001-0.421-0.003-0.138 0-0.275-0.018-0.408-0.056-0.116-0.032-0.222-0.093-0.306-0.179-0.081-0.083-0.121-0.207-0.121-0.371 0-0.104 0.028-0.198 0.086-0.282s0.136-0.157 0.235-0.218c0.109-0.064 0.227-0.112 0.351-0.142 0.144-0.035 0.292-0.053 0.44-0.052 0.123 0 0.231 0.009 0.322 0.026 0.136 0.025 0.27 0.063 0.399 0.112 0.033 0.015 0.070 0.024 0.107 0.026 0.032 0 0.055-0.006 0.070-0.017s0.028-0.024 0.043-0.039l0.051 0.021-0.237 0.496-0.047-0.030c0.003-0.018 0.005-0.037 0.004-0.056 0-0.020-0.017-0.044-0.052-0.073-0.045-0.035-0.094-0.063-0.146-0.084-0.073-0.030-0.149-0.054-0.226-0.069-0.094-0.019-0.191-0.029-0.287-0.028-0.233 0-0.417 0.038-0.554 0.112s-0.205 0.173-0.205 0.293c0 0.055 0.015 0.099 0.045 0.131 0.034 0.036 0.078 0.062 0.125 0.078 0.053 0.019 0.115 0.031 0.185 0.036s0.146 0.009 0.227 0.009c0.135 0 0.276 0.003 0.422 0.007s0.281 0.027 0.405 0.067c0.123 0.041 0.226 0.105 0.306 0.195s0.12 0.22 0.12 0.392c0 0.092-0.024 0.18-0.071 0.265-0.053 0.090-0.126 0.168-0.213 0.226-0.095 0.066-0.212 0.118-0.351 0.155-0.158 0.040-0.322 0.058-0.485 0.056-0.155 0-0.29-0.012-0.403-0.037-0.099-0.020-0.197-0.049-0.291-0.086-0.067-0.027-0.134-0.057-0.198-0.090-0.051-0.027-0.093-0.041-0.125-0.041-0.029 0-0.059 0.018-0.090 0.052l-0.043-0.026 0.233-0.496 0.056 0.030zM18.285 23.469c0 0.032 0.008 0.056 0.022 0.075s0.041 0.028 0.082 0.028v0.052h-0.569v-0.052c0.040 0 0.067-0.009 0.082-0.028 0.015-0.022 0.023-0.049 0.021-0.076v-1.957c0-0.032-0.007-0.057-0.022-0.076s-0.042-0.028-0.082-0.028v-0.052h1.445c0.285 0 0.489 0.054 0.612 0.162s0.185 0.264 0.185 0.468c0 0.181-0.047 0.325-0.142 0.431s-0.25 0.174-0.466 0.202l0.543 0.841c0.032 0.046 0.057 0.076 0.075 0.090s0.050 0.022 0.093 0.022v0.052h-0.621v-0.052c0.038 0 0.061-0.003 0.072-0.009s0.015-0.016 0.015-0.030c-0-0.018-0.008-0.035-0.021-0.047l-0.53-0.845h-0.793v0.828l-0.001 0zM19.229 22.348c0.176 0 0.299-0.033 0.371-0.099s0.107-0.157 0.107-0.271c0.001-0.050-0.006-0.099-0.021-0.146-0.015-0.041-0.042-0.077-0.078-0.101-0.046-0.031-0.098-0.052-0.153-0.061-0.082-0.015-0.165-0.021-0.248-0.019h-0.923v0.698l0.944 0zM15.225 23.366l-0.039 0.086c-0.012 0.023-0.019 0.048-0.022 0.073 0 0.032 0.025 0.047 0.073 0.047v0.052h-0.53v-0.052c0.015 0.001 0.031-0.001 0.045-0.004 0.015-0.004 0.028-0.013 0.037-0.026 0.015-0.020 0.028-0.041 0.039-0.062 0.014-0.027 0.033-0.064 0.056-0.11l0.78-1.742 0.053-0.11c0.009-0.018 0.015-0.038 0.017-0.058 0-0.035-0.026-0.052-0.078-0.052v-0.052h0.63v0.052c-0.046 0-0.069 0.017-0.069 0.052 0 0.017 0.007 0.040 0.021 0.067s0.033 0.066 0.056 0.114l0.828 1.716 0.060 0.121c0.011 0.023 0.025 0.045 0.041 0.065 0.013 0.015 0.026 0.023 0.041 0.026s0.035 0.004 0.060 0.004v0.052h-0.599v-0.052c0.035 0 0.058-0.005 0.069-0.015s0.017-0.025 0.017-0.045c-0.001-0.016-0.004-0.031-0.011-0.045l-0.045-0.101-0.164-0.345h-1.22l-0.146 0.345zM16.445 22.736l-0.487-1.017-0.449 1.017 0.936 0zM12.311 21.512c0-0.032-0.007-0.057-0.022-0.076s-0.042-0.028-0.082-0.028v-0.052h1.807c0.075 0 0.122-0.006 0.142-0.019s0.030-0.035 0.030-0.067h0.051v0.491h-0.051c0.002-0.033-0.011-0.065-0.035-0.088-0.023-0.021-0.067-0.032-0.134-0.032h-1.344v0.681h0.875c0.044 0.002 0.087-0.007 0.127-0.026 0.033-0.017 0.049-0.049 0.049-0.095h0.052v0.521h-0.052c0-0.043-0.013-0.073-0.039-0.090s-0.069-0.026-0.13-0.026h-0.883v0.733h1.44c0.060 0 0.105-0.010 0.133-0.032s0.043-0.060 0.043-0.114h0.052v0.513h-0.052c0-0.055-0.050-0.082-0.151-0.082h-1.931v-0.052c0.040 0 0.067-0.009 0.082-0.028 0.015-0.022 0.023-0.049 0.021-0.076v-1.957h-0v-0zM10.251 23.572c0.040 0 0.067-0.009 0.082-0.028 0.015-0.022 0.023-0.049 0.021-0.076v-0.785l-0.832-1.13c-0.030-0.039-0.062-0.077-0.097-0.112-0.024-0.023-0.055-0.035-0.089-0.035v-0.052h0.651v0.052c-0.072 0.003-0.108 0.023-0.108 0.060 0 0.014 0.009 0.031 0.026 0.050s0.033 0.039 0.047 0.062l0.595 0.81 0.629-0.836 0.039-0.047c0.014-0.017 0.022-0.033 0.022-0.047 0-0.035-0.032-0.052-0.095-0.052v-0.052h0.621v0.052c-0.036-0.002-0.071 0.012-0.097 0.037-0.034 0.035-0.066 0.072-0.097 0.11l-0.853 1.13v0.785c0 0.032 0.007 0.057 0.021 0.076s0.041 0.028 0.082 0.028v0.052h-0.569l-0-0.051z"></path>
<path fill="#fff" style="fill: var(--color1, #fff)" d="M10.524 26.082v-1.693h0.224v1.693h-0.224z"></path>
<path fill="#fff" style="fill: var(--color1, #fff)" d="M11.117 26.082v-1.227h0.187v0.174c0.090-0.135 0.22-0.202 0.391-0.202 0.074 0 0.142 0.013 0.204 0.040s0.108 0.061 0.139 0.105c0.031 0.043 0.052 0.094 0.065 0.154 0.008 0.039 0.011 0.106 0.011 0.202v0.754h-0.208v-0.746c0-0.084-0.008-0.148-0.024-0.19s-0.045-0.075-0.086-0.101c-0.041-0.025-0.090-0.038-0.145-0.038-0.088 0-0.165 0.028-0.229 0.084s-0.096 0.163-0.096 0.32v0.67h-0.208z"></path>
<path fill="#fff" style="fill: var(--color1, #fff)" d="M13.107 26.082v-1.693h0.635c0.129 0 0.233 0.017 0.311 0.051s0.139 0.087 0.184 0.158 0.066 0.146 0.066 0.223c0 0.072-0.020 0.141-0.059 0.204s-0.099 0.115-0.178 0.155c0.102 0.030 0.181 0.081 0.236 0.154s0.083 0.158 0.083 0.257c0 0.079-0.017 0.153-0.050 0.221s-0.075 0.121-0.124 0.158c-0.049 0.037-0.111 0.065-0.185 0.084s-0.165 0.028-0.273 0.028l-0.646-0zM13.331 25.1h0.366c0.099 0 0.171-0.007 0.214-0.020 0.057-0.017 0.1-0.045 0.129-0.084s0.043-0.089 0.043-0.148c0-0.056-0.014-0.106-0.040-0.148s-0.066-0.072-0.115-0.088-0.136-0.024-0.258-0.024h-0.338l0 0.511zM13.331 25.882h0.421c0.072 0 0.123-0.003 0.152-0.008 0.052-0.009 0.095-0.025 0.129-0.046s0.063-0.053 0.086-0.094c0.022-0.041 0.033-0.089 0.033-0.142 0-0.063-0.016-0.118-0.049-0.165s-0.077-0.079-0.135-0.098c-0.057-0.019-0.14-0.028-0.248-0.028h-0.392v0.582z"></path>
<path fill="#fff" style="fill: var(--color1, #fff)" d="M15.471 26.082v-0.18c-0.096 0.139-0.225 0.208-0.389 0.208-0.072 0-0.14-0.014-0.203-0.042s-0.109-0.062-0.14-0.105c-0.030-0.042-0.052-0.093-0.064-0.154-0.008-0.041-0.013-0.105-0.013-0.194v-0.76h0.208v0.68c0 0.108 0.004 0.182 0.013 0.219 0.013 0.055 0.041 0.098 0.083 0.129s0.095 0.047 0.157 0.047c0.062 0 0.121-0.016 0.176-0.048s0.094-0.076 0.116-0.131c0.023-0.055 0.034-0.135 0.034-0.239v-0.657h0.208v1.227l-0.186 0z"></path>
<path fill="#fff" style="fill: var(--color1, #fff)" d="M15.899 25.715l0.205-0.032c0.012 0.082 0.044 0.145 0.096 0.189s0.126 0.066 0.221 0.066c0.095 0 0.166-0.020 0.212-0.058s0.069-0.084 0.069-0.137c0-0.047-0.020-0.084-0.061-0.111-0.029-0.018-0.099-0.042-0.212-0.071-0.152-0.038-0.258-0.072-0.317-0.1s-0.104-0.067-0.134-0.117c-0.030-0.049-0.046-0.104-0.046-0.164 0-0.055 0.013-0.105 0.038-0.152s0.059-0.085 0.102-0.116c0.032-0.024 0.076-0.044 0.132-0.061s0.116-0.025 0.179-0.025c0.096 0 0.181 0.014 0.253 0.042s0.126 0.065 0.161 0.113c0.035 0.047 0.058 0.111 0.072 0.19l-0.203 0.028c-0.009-0.063-0.036-0.113-0.080-0.148s-0.107-0.053-0.188-0.053c-0.095 0-0.164 0.016-0.204 0.048s-0.061 0.068-0.061 0.111c0 0.027 0.009 0.051 0.025 0.073 0.017 0.023 0.043 0.041 0.079 0.055 0.021 0.008 0.082 0.026 0.184 0.053 0.147 0.039 0.25 0.072 0.308 0.096s0.104 0.061 0.137 0.109c0.033 0.048 0.050 0.107 0.050 0.178 0 0.069-0.020 0.135-0.061 0.196s-0.099 0.109-0.175 0.142c-0.076 0.033-0.163 0.050-0.259 0.050-0.159 0-0.281-0.033-0.364-0.099s-0.137-0.164-0.16-0.294z"></path>
<path fill="#fff" style="fill: var(--color1, #fff)" d="M17.166 24.627v-0.239h0.208v0.239h-0.208zM17.166 26.082v-1.227h0.208v1.227h-0.208z"></path>
<path fill="#fff" style="fill: var(--color1, #fff)" d="M17.691 26.082v-1.227h0.187v0.174c0.090-0.135 0.22-0.202 0.391-0.202 0.074 0 0.142 0.013 0.204 0.040s0.108 0.061 0.139 0.105c0.031 0.043 0.052 0.094 0.065 0.154 0.008 0.039 0.011 0.106 0.011 0.202v0.754h-0.208v-0.746c0-0.084-0.008-0.148-0.024-0.19s-0.045-0.075-0.086-0.101c-0.041-0.025-0.089-0.038-0.145-0.038-0.089 0-0.165 0.028-0.229 0.084s-0.096 0.163-0.096 0.32v0.67h-0.208z"></path>
<path fill="#fff" style="fill: var(--color1, #fff)" d="M19.846 25.686l0.215 0.027c-0.034 0.125-0.096 0.223-0.188 0.292s-0.208 0.104-0.351 0.104c-0.179 0-0.322-0.055-0.427-0.166s-0.158-0.265-0.158-0.465c0-0.206 0.053-0.366 0.159-0.48s0.244-0.171 0.414-0.171c0.164 0 0.298 0.056 0.402 0.168s0.156 0.269 0.156 0.471c0 0.012-0.001 0.031-0.001 0.055h-0.915c0.008 0.135 0.046 0.238 0.114 0.31s0.154 0.107 0.257 0.107c0.076 0 0.141-0.020 0.195-0.060s0.097-0.104 0.128-0.192zM19.163 25.351h0.685c-0.009-0.103-0.035-0.181-0.078-0.232-0.066-0.080-0.152-0.12-0.258-0.12-0.095 0-0.176 0.032-0.241 0.096s-0.101 0.15-0.108 0.257z"></path>
<path fill="#fff" style="fill: var(--color1, #fff)" d="M20.238 25.715l0.206-0.032c0.012 0.082 0.044 0.145 0.096 0.189s0.126 0.066 0.221 0.066c0.095 0 0.166-0.020 0.212-0.058s0.069-0.084 0.069-0.137c0-0.047-0.020-0.084-0.061-0.111-0.029-0.018-0.099-0.042-0.212-0.071-0.152-0.038-0.258-0.072-0.317-0.1s-0.104-0.067-0.134-0.117c-0.030-0.049-0.046-0.104-0.046-0.164 0-0.055 0.013-0.105 0.038-0.152s0.059-0.085 0.102-0.116c0.032-0.024 0.076-0.044 0.132-0.061s0.116-0.025 0.18-0.025c0.096 0 0.181 0.014 0.253 0.042s0.126 0.065 0.161 0.113c0.035 0.047 0.058 0.111 0.072 0.19l-0.203 0.028c-0.009-0.063-0.036-0.113-0.080-0.148s-0.107-0.053-0.188-0.053c-0.095 0-0.164 0.016-0.204 0.048s-0.061 0.068-0.061 0.111c0 0.027 0.009 0.051 0.025 0.073 0.017 0.023 0.043 0.041 0.080 0.055 0.021 0.008 0.082 0.026 0.184 0.053 0.147 0.039 0.25 0.072 0.308 0.096s0.104 0.061 0.137 0.109c0.033 0.048 0.050 0.107 0.050 0.178 0 0.069-0.020 0.135-0.061 0.196s-0.099 0.109-0.175 0.142c-0.076 0.033-0.163 0.050-0.259 0.050-0.159 0-0.281-0.033-0.364-0.099s-0.137-0.164-0.16-0.294z"></path>
<path fill="#fff" style="fill: var(--color1, #fff)" d="M21.421 25.715l0.206-0.032c0.012 0.082 0.044 0.145 0.096 0.189s0.126 0.066 0.221 0.066c0.095 0 0.166-0.020 0.212-0.058s0.069-0.084 0.069-0.137c0-0.047-0.020-0.084-0.061-0.111-0.029-0.018-0.099-0.042-0.212-0.071-0.152-0.038-0.258-0.072-0.317-0.1s-0.104-0.067-0.134-0.117c-0.030-0.049-0.046-0.104-0.046-0.164 0-0.055 0.013-0.105 0.038-0.152s0.059-0.085 0.102-0.116c0.032-0.024 0.076-0.044 0.132-0.061s0.116-0.025 0.18-0.025c0.096 0 0.181 0.014 0.253 0.042s0.126 0.065 0.161 0.113c0.035 0.047 0.058 0.111 0.072 0.19l-0.203 0.028c-0.009-0.063-0.036-0.113-0.080-0.148s-0.107-0.053-0.188-0.053c-0.095 0-0.164 0.016-0.204 0.048s-0.061 0.068-0.061 0.111c0 0.027 0.009 0.051 0.025 0.073 0.017 0.023 0.043 0.041 0.080 0.055 0.021 0.008 0.082 0.026 0.184 0.053 0.147 0.039 0.25 0.072 0.308 0.096s0.104 0.061 0.137 0.109c0.033 0.048 0.050 0.107 0.050 0.178 0 0.069-0.020 0.135-0.061 0.196s-0.099 0.109-0.175 0.142c-0.076 0.033-0.163 0.050-0.259 0.050-0.159 0-0.281-0.033-0.364-0.099s-0.137-0.164-0.16-0.294z"></path>
<path fill="#fff" style="fill: var(--color1, #fff)" d="M14.485 18.365l3.918-7.76v-0.062h-4.582v-1.893h7.010v1.907l-3.932 7.807h-2.414z"></path>
</symbol>

<symbol id="icon-guarantee-5" viewBox="0 0 32 32">
<path fill="#607087" style="fill: var(--color3, #607087)" d="M14.856 0.371c0.64-0.492 1.687-0.492 2.327 0l0.375 0.288c0.639 0.492 1.797 0.707 2.573 0.478l0.454-0.134c0.776-0.229 1.752 0.148 2.17 0.836l0.245 0.404c0.418 0.689 1.419 1.305 2.225 1.371l0.473 0.038c0.806 0.065 1.58 0.766 1.719 1.559l0.082 0.464c0.14 0.792 0.85 1.726 1.577 2.078l0.427 0.205c0.728 0.35 1.195 1.283 1.037 2.071l-0.092 0.462c-0.158 0.789 0.165 1.916 0.716 2.504l0.323 0.345c0.552 0.588 0.648 1.625 0.215 2.304l-0.255 0.398c-0.432 0.679-0.541 1.846-0.241 2.592l0.176 0.438c0.301 0.746 0.014 1.748-0.636 2.225l-0.382 0.28c-0.651 0.477-1.176 1.527-1.167 2.33l0.007 0.472c0.009 0.804-0.623 1.635-1.403 1.846l-0.457 0.125c-0.78 0.211-1.65 1-1.934 1.753l-0.166 0.441c-0.283 0.754-1.174 1.301-1.978 1.218l-0.471-0.048c-0.804-0.084-1.903 0.339-2.441 0.94l-0.315 0.352c-0.538 0.6-1.567 0.791-2.287 0.425l-0.423-0.215c-0.719-0.366-1.897-0.366-2.617 0l-0.422 0.215c-0.719 0.366-1.748 0.175-2.287-0.425l-0.315-0.352c-0.538-0.601-1.636-1.024-2.44-0.94l-0.472 0.048c-0.804 0.083-1.694-0.464-1.977-1.218l-0.166-0.441c-0.284-0.753-1.154-1.542-1.934-1.753l-0.457-0.125c-0.78-0.211-1.411-1.042-1.402-1.846l0.006-0.472c0.010-0.803-0.516-1.853-1.166-2.33l-0.381-0.28c-0.651-0.477-0.937-1.479-0.637-2.225l0.176-0.438c0.3-0.746 0.192-1.913-0.241-2.592l-0.254-0.398c-0.434-0.679-0.337-1.716 0.215-2.304l0.323-0.345c0.551-0.588 0.874-1.714 0.717-2.504l-0.093-0.462c-0.157-0.789 0.309-1.721 1.037-2.071l0.426-0.205c0.728-0.351 1.437-1.285 1.577-2.078l0.082-0.464c0.14-0.793 0.913-1.495 1.719-1.559l0.472-0.038c0.806-0.065 1.807-0.682 2.225-1.371l0.245-0.403c0.418-0.688 1.394-1.065 2.169-0.836l0.455 0.134c0.774 0.229 1.933 0.014 2.572-0.478l0.374-0.288z"></path>
<path fill="none" stroke="#fff" style="stroke: var(--color1, #fff)" stroke-linejoin="miter" stroke-linecap="butt" stroke-miterlimit="4" stroke-width="0.6317" d="M15.004 2.336c0.559-0.43 1.474-0.43 2.033 0l0.328 0.252c0.56 0.429 1.571 0.617 2.249 0.418l0.397-0.117c0.677-0.2 1.53 0.128 1.895 0.729l0.214 0.352c0.365 0.601 1.241 1.139 1.944 1.197l0.413 0.033c0.704 0.057 1.38 0.669 1.503 1.361l0.071 0.405c0.123 0.691 0.742 1.507 1.379 1.813l0.372 0.18c0.636 0.305 1.044 1.119 0.907 1.807l-0.082 0.404c-0.137 0.689 0.145 1.672 0.626 2.185l0.283 0.301c0.482 0.513 0.566 1.418 0.188 2.010l-0.222 0.347c-0.379 0.594-0.473 1.611-0.211 2.263l0.154 0.382c0.262 0.652 0.013 1.526-0.556 1.942l-0.335 0.245c-0.568 0.415-1.026 1.332-1.018 2.034l0.005 0.412c0.008 0.701-0.543 1.427-1.225 1.611l-0.399 0.108c-0.681 0.185-1.442 0.874-1.69 1.531l-0.145 0.386c-0.248 0.657-1.026 1.135-1.729 1.063l-0.412-0.043c-0.703-0.073-1.663 0.297-2.132 0.821l-0.276 0.307c-0.47 0.523-1.37 0.691-1.998 0.371l-0.368-0.188c-0.629-0.32-1.658-0.32-2.288 0l-0.368 0.188c-0.629 0.319-1.528 0.152-1.998-0.371l-0.276-0.307c-0.47-0.525-1.43-0.894-2.132-0.821l-0.412 0.043c-0.703 0.073-1.48-0.406-1.729-1.064l-0.145-0.385c-0.248-0.657-1.009-1.346-1.691-1.531l-0.399-0.108c-0.682-0.184-1.234-0.91-1.226-1.611l0.004-0.412c0.008-0.702-0.45-1.618-1.018-2.034l-0.334-0.245c-0.569-0.416-0.819-1.29-0.556-1.942l0.154-0.382c0.262-0.652 0.168-1.67-0.211-2.263l-0.222-0.347c-0.379-0.592-0.295-1.497 0.188-2.010l0.282-0.301c0.482-0.513 0.763-1.496 0.626-2.185l-0.080-0.404c-0.138-0.688 0.27-1.502 0.906-1.807l0.373-0.18c0.636-0.306 1.257-1.121 1.378-1.813l0.072-0.405c0.122-0.692 0.798-1.304 1.502-1.361l0.413-0.033c0.704-0.057 1.58-0.595 1.945-1.197l0.214-0.352c0.365-0.601 1.218-0.929 1.896-0.73l0.397 0.117c0.677 0.2 1.689 0.011 2.248-0.418l0.328-0.252z"></path>
<path fill="#fff" style="fill: var(--color1, #fff)" d="M20.921 22.944c-0.008 0.018-0.013 0.036-0.014 0.055 0 0.041 0.025 0.082 0.075 0.125s0.117 0.083 0.199 0.119c0.188 0.081 0.389 0.122 0.593 0.124 0.273 0 0.471-0.041 0.593-0.121s0.183-0.184 0.183-0.311c0.002-0.054-0.014-0.107-0.045-0.151-0.032-0.041-0.076-0.074-0.125-0.093-0.060-0.023-0.122-0.038-0.186-0.045-0.075-0.009-0.151-0.013-0.226-0.013-0.132 0-0.273-0.001-0.42-0.003-0.138 0-0.275-0.019-0.408-0.055-0.116-0.032-0.222-0.094-0.306-0.179-0.081-0.084-0.121-0.207-0.121-0.37 0-0.104 0.029-0.199 0.086-0.283s0.136-0.157 0.235-0.218c0.11-0.064 0.228-0.112 0.351-0.142 0.144-0.035 0.292-0.052 0.44-0.052 0.123 0 0.231 0.009 0.322 0.026 0.136 0.026 0.27 0.062 0.398 0.113 0.034 0.015 0.071 0.024 0.107 0.026 0.032 0 0.055-0.006 0.070-0.018s0.028-0.024 0.043-0.038l0.052 0.021-0.237 0.496-0.047-0.030c0.004-0.018 0.005-0.037 0.005-0.056 0-0.020-0.018-0.044-0.052-0.074-0.045-0.035-0.095-0.063-0.147-0.084-0.073-0.030-0.149-0.054-0.226-0.069-0.094-0.019-0.19-0.028-0.287-0.027-0.233 0-0.417 0.037-0.554 0.112s-0.205 0.173-0.205 0.293c0 0.055 0.016 0.098 0.045 0.131 0.034 0.036 0.078 0.062 0.125 0.078 0.053 0.019 0.114 0.030 0.185 0.036s0.146 0.008 0.227 0.008c0.135 0 0.275 0.003 0.423 0.007s0.281 0.027 0.405 0.067c0.124 0.040 0.226 0.105 0.307 0.195s0.12 0.219 0.12 0.391c0 0.092-0.024 0.18-0.071 0.266-0.053 0.090-0.125 0.167-0.213 0.226-0.095 0.066-0.212 0.118-0.351 0.155-0.159 0.040-0.322 0.058-0.485 0.055-0.156 0-0.29-0.012-0.403-0.037-0.1-0.020-0.197-0.049-0.291-0.086-0.068-0.027-0.133-0.057-0.198-0.090-0.052-0.028-0.093-0.041-0.125-0.041-0.029 0-0.059 0.017-0.090 0.052l-0.043-0.027 0.233-0.496 0.056 0.030zM18.213 23.47c0 0.031 0.007 0.057 0.022 0.075s0.041 0.028 0.082 0.028v0.051h-0.569v-0.051c0.040 0 0.067-0.010 0.083-0.028 0.015-0.022 0.022-0.049 0.021-0.076v-1.957c0-0.031-0.007-0.057-0.022-0.076s-0.041-0.027-0.082-0.027v-0.052h1.444c0.285 0 0.489 0.054 0.612 0.162s0.186 0.264 0.186 0.468c0 0.181-0.048 0.324-0.142 0.431s-0.25 0.174-0.466 0.203l0.544 0.841c0.032 0.046 0.057 0.076 0.075 0.090s0.049 0.022 0.093 0.022v0.051h-0.621v-0.051c0.038 0 0.061-0.003 0.072-0.009s0.014-0.016 0.014-0.030c0-0.018-0.008-0.035-0.021-0.047l-0.531-0.845h-0.792v0.827l-0.001 0.001zM19.159 22.349c0.175 0 0.299-0.033 0.371-0.099s0.107-0.157 0.107-0.272c0.001-0.050-0.007-0.099-0.021-0.146-0.015-0.041-0.043-0.077-0.078-0.101-0.046-0.031-0.098-0.052-0.153-0.061-0.082-0.014-0.165-0.020-0.247-0.019h-0.923v0.698l0.945 0zM15.154 23.367l-0.039 0.086c-0.012 0.022-0.019 0.047-0.022 0.073 0 0.032 0.025 0.048 0.074 0.048v0.051h-0.53v-0.051c0.015 0 0.030-0.002 0.045-0.004 0.015-0.004 0.028-0.014 0.037-0.026 0.015-0.019 0.028-0.040 0.039-0.062 0.014-0.028 0.033-0.064 0.056-0.11l0.78-1.742 0.053-0.11c0.009-0.019 0.015-0.038 0.017-0.058 0-0.035-0.026-0.051-0.078-0.051v-0.052h0.629v0.052c-0.046 0-0.068 0.017-0.068 0.051 0 0.017 0.007 0.040 0.021 0.067s0.033 0.066 0.055 0.114l0.829 1.715 0.060 0.121c0.011 0.023 0.025 0.046 0.041 0.065 0.012 0.015 0.026 0.023 0.041 0.026s0.035 0.004 0.060 0.004v0.051h-0.599v-0.051c0.035 0 0.057-0.006 0.068-0.015 0.012-0.011 0.018-0.026 0.018-0.046-0-0.015-0.004-0.031-0.011-0.045l-0.045-0.101-0.164-0.345h-1.22l-0.146 0.345zM16.374 22.737l-0.487-1.017-0.448 1.017 0.936 0.001zM12.24 21.512c0-0.031-0.008-0.057-0.022-0.076s-0.041-0.027-0.082-0.027v-0.052h1.806c0.075 0 0.122-0.006 0.143-0.019s0.030-0.035 0.030-0.067h0.052v0.492h-0.052c0.002-0.033-0.011-0.066-0.035-0.089-0.022-0.021-0.067-0.032-0.134-0.032h-1.344v0.682h0.875c0.044 0.002 0.088-0.007 0.128-0.026 0.033-0.017 0.049-0.049 0.049-0.095h0.052v0.521h-0.052c0-0.043-0.013-0.073-0.039-0.090s-0.069-0.026-0.129-0.026h-0.884v0.733h1.441c0.060 0 0.104-0.010 0.133-0.032s0.043-0.060 0.043-0.114h0.052v0.513h-0.052c0-0.055-0.050-0.083-0.151-0.083h-1.932v-0.051c0.040 0 0.068-0.010 0.082-0.028 0.015-0.022 0.023-0.049 0.021-0.076l0-1.957zM10.18 23.574c0.040 0 0.067-0.010 0.082-0.028 0.015-0.022 0.023-0.049 0.021-0.076v-0.785l-0.832-1.129c-0.030-0.040-0.062-0.078-0.097-0.113-0.024-0.023-0.055-0.036-0.088-0.034v-0.052h0.651v0.052c-0.072 0.003-0.108 0.022-0.108 0.060 0 0.014 0.009 0.031 0.026 0.049s0.033 0.039 0.047 0.062l0.595 0.81 0.629-0.836 0.039-0.048c0.014-0.018 0.022-0.033 0.022-0.048 0-0.035-0.031-0.051-0.095-0.051v-0.052h0.621v0.052c-0.036-0.003-0.071 0.011-0.097 0.037-0.034 0.035-0.066 0.072-0.097 0.11l-0.853 1.129v0.785c0 0.032 0.007 0.057 0.021 0.076s0.041 0.028 0.082 0.028v0.051h-0.569v-0.051z"></path>
<path fill="#fff" style="fill: var(--color1, #fff)" d="M12.243 16.501l2.136-0.221c0.061 0.483 0.241 0.866 0.542 1.148s0.646 0.423 1.037 0.423c0.447 0 0.826-0.182 1.136-0.545s0.465-0.911 0.465-1.644c0-0.686-0.154-1.201-0.461-1.544s-0.708-0.515-1.201-0.515c-0.615 0-1.167 0.272-1.655 0.816l-1.739-0.252 1.098-5.819h5.667v2.006h-4.042l-0.336 1.899c0.478-0.239 0.966-0.359 1.464-0.359 0.951 0 1.757 0.346 2.418 1.037s0.991 1.589 0.991 2.692c0 0.92-0.267 1.742-0.801 2.464-0.727 0.986-1.736 1.48-3.028 1.48-1.032 0-1.874-0.277-2.525-0.832s-1.040-1.299-1.167-2.235z"></path>
<path fill="#fff" style="fill: var(--color1, #fff)" d="M11.638 25.418v-0.199l0.717-0.001v0.629c-0.11 0.088-0.223 0.154-0.34 0.198s-0.237 0.067-0.36 0.067c-0.166 0-0.318-0.036-0.453-0.107s-0.238-0.174-0.307-0.309c-0.069-0.135-0.104-0.286-0.104-0.451s0.034-0.319 0.103-0.462c0.069-0.142 0.168-0.249 0.297-0.318s0.278-0.104 0.447-0.104c0.122 0 0.233 0.020 0.332 0.059s0.177 0.095 0.233 0.166c0.056 0.071 0.099 0.163 0.128 0.277l-0.202 0.055c-0.025-0.086-0.057-0.154-0.094-0.203s-0.092-0.089-0.162-0.119c-0.070-0.029-0.148-0.045-0.233-0.045-0.103 0-0.191 0.016-0.266 0.047s-0.135 0.072-0.181 0.123c-0.046 0.050-0.081 0.107-0.107 0.167-0.043 0.105-0.065 0.219-0.065 0.341 0 0.151 0.026 0.277 0.078 0.379 0.052 0.101 0.127 0.177 0.227 0.226s0.205 0.074 0.317 0.074c0.097 0 0.191-0.020 0.284-0.056s0.162-0.078 0.21-0.119v-0.315l-0.497 0z"></path>
<path fill="#fff" style="fill: var(--color1, #fff)" d="M13.462 26.083v-0.18c-0.096 0.138-0.226 0.207-0.389 0.207-0.072 0-0.14-0.014-0.202-0.042s-0.11-0.062-0.14-0.104c-0.030-0.042-0.051-0.093-0.064-0.154-0.008-0.042-0.013-0.106-0.013-0.195v-0.76h0.208v0.68c0 0.109 0.004 0.182 0.013 0.22 0.013 0.055 0.040 0.097 0.083 0.129s0.095 0.046 0.157 0.046c0.062 0 0.121-0.016 0.176-0.048s0.093-0.075 0.116-0.131c0.023-0.055 0.034-0.135 0.034-0.24v-0.657h0.208v1.227l-0.186 0z"></path>
<path fill="#fff" style="fill: var(--color1, #fff)" d="M14.774 25.931c-0.077 0.065-0.151 0.111-0.222 0.138s-0.148 0.040-0.229 0.040c-0.135 0-0.238-0.033-0.311-0.099s-0.109-0.15-0.109-0.252c0-0.060 0.014-0.115 0.041-0.164s0.063-0.090 0.108-0.12c0.044-0.030 0.094-0.052 0.15-0.068 0.041-0.010 0.102-0.020 0.184-0.031 0.168-0.020 0.291-0.043 0.37-0.072 0.001-0.028 0.001-0.046 0.001-0.054 0-0.085-0.020-0.145-0.058-0.179-0.054-0.047-0.132-0.070-0.237-0.070-0.098 0-0.17 0.017-0.216 0.051s-0.081 0.095-0.104 0.182l-0.203-0.028c0.018-0.086 0.049-0.157 0.091-0.21s0.104-0.095 0.183-0.124c0.081-0.029 0.174-0.043 0.279-0.043s0.19 0.012 0.255 0.036c0.065 0.025 0.113 0.056 0.145 0.093s0.052 0.084 0.065 0.141c0.007 0.036 0.011 0.1 0.011 0.192v0.277c0 0.193 0.004 0.316 0.013 0.367s0.026 0.1 0.052 0.147h-0.217c-0.022-0.044-0.036-0.094-0.042-0.151zM14.757 25.467c-0.075 0.031-0.189 0.057-0.339 0.078-0.086 0.013-0.146 0.026-0.182 0.042s-0.062 0.037-0.082 0.067c-0.019 0.030-0.029 0.062-0.029 0.099 0 0.055 0.021 0.101 0.063 0.138s0.103 0.056 0.184 0.056c0.080 0 0.151-0.018 0.213-0.052s0.108-0.083 0.137-0.144c0.023-0.047 0.033-0.116 0.033-0.207l-0-0.077z"></path>
<path fill="#fff" style="fill: var(--color1, #fff)" d="M15.286 26.083v-1.227h0.187v0.186c0.048-0.087 0.092-0.144 0.132-0.172s0.085-0.041 0.133-0.041c0.070 0 0.141 0.022 0.214 0.067l-0.072 0.193c-0.051-0.030-0.102-0.045-0.152-0.045-0.045 0-0.086 0.014-0.122 0.041s-0.062 0.065-0.078 0.113c-0.023 0.074-0.035 0.155-0.035 0.243v0.642h-0.207z"></path>
<path fill="#fff" style="fill: var(--color1, #fff)" d="M16.877 25.931c-0.078 0.065-0.151 0.111-0.223 0.138s-0.148 0.040-0.229 0.040c-0.135 0-0.239-0.033-0.31-0.099-0.073-0.066-0.109-0.15-0.109-0.252 0-0.060 0.014-0.115 0.042-0.164s0.062-0.090 0.107-0.12c0.045-0.030 0.095-0.052 0.15-0.068 0.041-0.010 0.102-0.020 0.184-0.031 0.168-0.020 0.291-0.043 0.371-0.072 0.001-0.028 0.001-0.046 0.001-0.054 0-0.085-0.019-0.145-0.059-0.179-0.054-0.047-0.132-0.070-0.237-0.070-0.098 0-0.17 0.017-0.216 0.051s-0.081 0.095-0.103 0.182l-0.204-0.028c0.018-0.086 0.049-0.157 0.091-0.21s0.104-0.095 0.184-0.124c0.080-0.029 0.173-0.043 0.278-0.043s0.19 0.012 0.255 0.036c0.066 0.025 0.114 0.056 0.145 0.093s0.052 0.084 0.065 0.141c0.007 0.036 0.011 0.1 0.011 0.192v0.277c0 0.193 0.005 0.316 0.013 0.367s0.026 0.1 0.053 0.147h-0.217c-0.021-0.044-0.035-0.094-0.041-0.151zM16.859 25.467c-0.076 0.031-0.189 0.057-0.34 0.078-0.085 0.013-0.146 0.026-0.181 0.042s-0.063 0.037-0.082 0.067c-0.019 0.030-0.029 0.062-0.029 0.099 0 0.055 0.021 0.101 0.063 0.138s0.104 0.056 0.185 0.056c0.080 0 0.151-0.018 0.213-0.052s0.108-0.083 0.137-0.144c0.022-0.047 0.034-0.116 0.034-0.207l0-0.077z"></path>
<path fill="#fff" style="fill: var(--color1, #fff)" d="M17.391 26.083v-1.227h0.187v0.174c0.090-0.134 0.22-0.202 0.391-0.202 0.073 0 0.142 0.014 0.204 0.039s0.108 0.061 0.139 0.105c0.031 0.043 0.052 0.094 0.065 0.154 0.008 0.039 0.011 0.106 0.011 0.202v0.755h-0.207v-0.746c0-0.084-0.009-0.147-0.025-0.19s-0.045-0.076-0.086-0.101c-0.041-0.024-0.090-0.037-0.145-0.037-0.089 0-0.165 0.028-0.23 0.084s-0.096 0.163-0.096 0.321v0.669l-0.208 0z"></path>
<path fill="#fff" style="fill: var(--color1, #fff)" d="M19.161 25.896l0.030 0.183c-0.059 0.012-0.11 0.018-0.157 0.018-0.075 0-0.134-0.012-0.176-0.035s-0.070-0.055-0.088-0.094c-0.017-0.040-0.025-0.121-0.025-0.245v-0.706h-0.152v-0.162h0.152v-0.304l0.206-0.124v0.428h0.209v0.162h-0.209v0.718c0 0.059 0.004 0.097 0.011 0.114s0.019 0.030 0.037 0.041c0.016 0.009 0.039 0.015 0.070 0.015 0.023 0.001 0.054-0.002 0.092-0.007z"></path>
<path fill="#fff" style="fill: var(--color1, #fff)" d="M20.205 25.686l0.215 0.027c-0.034 0.126-0.096 0.223-0.188 0.292s-0.208 0.104-0.351 0.104c-0.179 0-0.322-0.055-0.427-0.165s-0.158-0.266-0.158-0.465c0-0.206 0.053-0.367 0.159-0.481s0.244-0.17 0.414-0.17c0.164 0 0.298 0.055 0.401 0.167s0.157 0.268 0.157 0.471c0 0.013 0 0.031-0.001 0.056h-0.915c0.008 0.134 0.046 0.238 0.114 0.309s0.154 0.107 0.257 0.107c0.076 0 0.142-0.020 0.196-0.060 0.053-0.040 0.095-0.104 0.127-0.192zM19.522 25.351h0.685c-0.010-0.103-0.035-0.181-0.078-0.232-0.067-0.080-0.152-0.12-0.258-0.12-0.096 0-0.176 0.032-0.241 0.096s-0.101 0.15-0.108 0.256z"></path>
<path fill="#fff" style="fill: var(--color1, #fff)" d="M21.519 25.686l0.215 0.027c-0.034 0.126-0.096 0.223-0.188 0.292s-0.209 0.104-0.351 0.104c-0.18 0-0.322-0.055-0.427-0.165s-0.158-0.266-0.158-0.465c0-0.206 0.053-0.367 0.159-0.481s0.244-0.17 0.413-0.17c0.164 0 0.298 0.055 0.402 0.167s0.156 0.268 0.156 0.471c0 0.013-0.001 0.031-0.002 0.056h-0.915c0.008 0.134 0.045 0.238 0.114 0.309 0.068 0.072 0.154 0.107 0.256 0.107 0.076 0 0.141-0.020 0.195-0.060s0.096-0.104 0.128-0.192zM20.837 25.351h0.685c-0.010-0.103-0.036-0.181-0.079-0.232-0.067-0.080-0.152-0.12-0.258-0.12-0.095 0-0.176 0.032-0.241 0.096s-0.102 0.15-0.108 0.256z"></path>
</symbol>

<symbol id="icon-free-design" viewBox="0 0 32 32">
<path fill="#77715b" style="fill: var(--color4, #77715b)" d="M14.969 0.37c0.642-0.493 1.692-0.493 2.334 0l0.376 0.289c0.642 0.493 1.803 0.709 2.58 0.48l0.456-0.134c0.778-0.23 1.757 0.148 2.176 0.838l0.246 0.405c0.419 0.691 1.424 1.309 2.232 1.375l0.474 0.038c0.808 0.066 1.584 0.769 1.724 1.564l0.082 0.466c0.14 0.795 0.852 1.731 1.582 2.084l0.428 0.206c0.73 0.352 1.198 1.287 1.040 2.078l-0.093 0.464c-0.158 0.791 0.166 1.921 0.719 2.511l0.324 0.346c0.553 0.59 0.65 1.63 0.215 2.31l-0.255 0.4c-0.434 0.681-0.544 1.851-0.242 2.6l0.176 0.439c0.302 0.749 0.015 1.754-0.638 2.232l-0.383 0.281c-0.653 0.478-1.179 1.531-1.17 2.337l0.006 0.473c0.009 0.806-0.624 1.641-1.407 1.852l-0.459 0.125c-0.782 0.212-1.655 1.003-1.939 1.759l-0.167 0.443c-0.284 0.756-1.177 1.305-1.984 1.222l-0.473-0.048c-0.806-0.084-1.908 0.341-2.448 0.943l-0.316 0.353c-0.54 0.602-1.572 0.794-2.294 0.426l-0.424-0.215c-0.722-0.368-1.903-0.368-2.625 0l-0.423 0.215c-0.722 0.368-1.754 0.175-2.294-0.426l-0.316-0.353c-0.54-0.602-1.641-1.026-2.448-0.943l-0.473 0.048c-0.806 0.084-1.699-0.466-1.983-1.222l-0.167-0.443c-0.284-0.755-1.157-1.547-1.939-1.759l-0.459-0.125c-0.782-0.211-1.415-1.045-1.407-1.852l0.006-0.473c0.009-0.806-0.517-1.859-1.17-2.337l-0.383-0.281c-0.653-0.479-0.94-1.483-0.639-2.232l0.177-0.439c0.301-0.749 0.192-1.919-0.242-2.6l-0.255-0.4c-0.435-0.681-0.338-1.721 0.215-2.311l0.323-0.346c0.553-0.59 0.877-1.72 0.719-2.511l-0.092-0.464c-0.158-0.791 0.31-1.727 1.039-2.078l0.428-0.206c0.731-0.352 1.442-1.289 1.582-2.084l0.082-0.466c0.14-0.795 0.916-1.499 1.724-1.564l0.474-0.038c0.808-0.065 1.813-0.684 2.232-1.375l0.246-0.405c0.419-0.691 1.399-1.068 2.176-0.838l0.456 0.134c0.777 0.23 1.939 0.014 2.58-0.48l0.376-0.289z"></path>
<path fill="none" stroke="#fff" style="stroke: var(--color1, #fff)" stroke-linejoin="miter" stroke-linecap="butt" stroke-miterlimit="4" stroke-width="0.6337" d="M15.116 2.341c0.561-0.431 1.478-0.431 2.039 0l0.329 0.252c0.561 0.43 1.575 0.619 2.255 0.418l0.398-0.117c0.679-0.201 1.535 0.129 1.901 0.732l0.215 0.353c0.367 0.603 1.244 1.143 1.95 1.2l0.414 0.033c0.706 0.057 1.385 0.671 1.507 1.365l0.071 0.407c0.122 0.694 0.744 1.512 1.382 1.818l0.374 0.18c0.638 0.306 1.047 1.123 0.909 1.813l-0.081 0.405c-0.138 0.691 0.145 1.677 0.628 2.192l0.283 0.302c0.484 0.515 0.568 1.422 0.188 2.017l-0.222 0.348c-0.38 0.595-0.475 1.616-0.212 2.269l0.154 0.383c0.263 0.654 0.013 1.53-0.558 1.948l-0.335 0.245c-0.57 0.418-1.030 1.336-1.022 2.040l0.005 0.413c0.008 0.704-0.545 1.432-1.229 1.616l-0.401 0.108c-0.683 0.185-1.447 0.876-1.695 1.535l-0.146 0.387c-0.249 0.659-1.029 1.139-1.733 1.066l-0.413-0.043c-0.705-0.073-1.668 0.298-2.139 0.823l-0.276 0.308c-0.472 0.525-1.374 0.693-2.005 0.372l-0.37-0.188c-0.631-0.321-1.663-0.321-2.295 0l-0.369 0.188c-0.631 0.321-1.533 0.153-2.005-0.372l-0.277-0.308c-0.471-0.526-1.434-0.896-2.138-0.823l-0.414 0.043c-0.705 0.073-1.485-0.407-1.734-1.067l-0.145-0.386c-0.249-0.659-1.012-1.35-1.695-1.535l-0.401-0.108c-0.684-0.185-1.237-0.912-1.229-1.616l0.004-0.413c0.008-0.703-0.452-1.622-1.022-2.040l-0.335-0.245c-0.57-0.418-0.821-1.294-0.558-1.948l0.154-0.383c0.263-0.654 0.168-1.675-0.212-2.269l-0.222-0.348c-0.381-0.594-0.296-1.502 0.188-2.017l0.283-0.302c0.483-0.515 0.766-1.501 0.628-2.192l-0.081-0.405c-0.138-0.691 0.271-1.507 0.909-1.813l0.374-0.18c0.638-0.307 1.26-1.125 1.383-1.819l0.072-0.406c0.122-0.694 0.8-1.308 1.507-1.365l0.414-0.033c0.706-0.058 1.584-0.597 1.95-1.2l0.214-0.353c0.367-0.603 1.222-0.932 1.901-0.732l0.398 0.118c0.679 0.201 1.694 0.012 2.255-0.418l0.328-0.252z"></path>
<path fill="#fff" style="fill: var(--color1, #fff)" d="M12.857 26.159v-1.698h0.585c0.132 0 0.233 0.008 0.302 0.024 0.097 0.022 0.18 0.063 0.249 0.122 0.090 0.076 0.156 0.172 0.201 0.29s0.067 0.252 0.067 0.404c0 0.129-0.015 0.243-0.045 0.343s-0.069 0.182-0.116 0.247c-0.047 0.065-0.099 0.117-0.155 0.154s-0.124 0.066-0.203 0.085c-0.079 0.019-0.17 0.029-0.273 0.029h-0.613zM13.082 25.959h0.363c0.112 0 0.2-0.010 0.264-0.031s0.114-0.050 0.152-0.088c0.053-0.053 0.095-0.125 0.125-0.215s0.044-0.199 0.044-0.327c0-0.177-0.029-0.314-0.088-0.41s-0.129-0.159-0.212-0.192c-0.060-0.023-0.157-0.035-0.291-0.035h-0.357v1.297zM15.386 25.763l0.215 0.027c-0.034 0.126-0.097 0.224-0.189 0.293s-0.209 0.104-0.352 0.104c-0.18 0-0.323-0.055-0.428-0.166s-0.158-0.266-0.158-0.466c0-0.207 0.053-0.368 0.16-0.482s0.245-0.172 0.415-0.172c0.164 0 0.299 0.056 0.403 0.168s0.156 0.27 0.156 0.473c0 0.012-0 0.031-0.001 0.056h-0.917c0.008 0.135 0.046 0.239 0.115 0.311s0.154 0.108 0.257 0.108c0.076 0 0.142-0.020 0.196-0.060s0.097-0.104 0.128-0.192zM14.702 25.426h0.687c-0.009-0.103-0.036-0.181-0.079-0.233-0.066-0.080-0.153-0.12-0.258-0.12-0.096 0-0.176 0.032-0.241 0.096s-0.101 0.15-0.108 0.257zM15.78 25.792l0.206-0.032c0.012 0.083 0.044 0.146 0.097 0.19s0.127 0.066 0.222 0.066c0.096 0 0.167-0.020 0.213-0.058s0.070-0.085 0.070-0.137c0-0.047-0.020-0.084-0.061-0.111-0.029-0.019-0.1-0.042-0.213-0.071-0.153-0.039-0.259-0.072-0.318-0.1s-0.104-0.067-0.134-0.117c-0.029-0.046-0.046-0.102-0.046-0.162 0-0.001 0-0.002 0-0.003v0c0-0.055 0.013-0.106 0.038-0.152s0.059-0.085 0.102-0.116c0.032-0.024 0.077-0.044 0.133-0.061 0.053-0.016 0.113-0.025 0.176-0.025 0.002 0 0.003 0 0.005 0h-0c0.096 0 0.181 0.014 0.254 0.042s0.127 0.065 0.162 0.113c0.035 0.047 0.059 0.111 0.072 0.19l-0.204 0.028c-0.009-0.063-0.036-0.113-0.080-0.148s-0.107-0.053-0.188-0.053c-0.096 0-0.164 0.016-0.205 0.047s-0.061 0.069-0.061 0.111c0 0.027 0.009 0.052 0.025 0.073s0.044 0.041 0.080 0.056c0.021 0.008 0.082 0.026 0.184 0.053 0.148 0.039 0.25 0.072 0.309 0.097s0.104 0.061 0.137 0.109 0.050 0.107 0.050 0.178c0 0.070-0.020 0.135-0.061 0.196s-0.099 0.109-0.176 0.142c-0.076 0.034-0.163 0.050-0.259 0.050-0.16 0-0.282-0.033-0.365-0.1s-0.137-0.165-0.16-0.295zM17.051 24.701v-0.24h0.208v0.24h-0.208zM17.051 26.159v-1.23h0.208v1.23h-0.208zM17.538 26.261l0.203 0.030c0.009 0.063 0.032 0.108 0.071 0.137 0.052 0.038 0.122 0.058 0.212 0.058 0.097 0 0.171-0.019 0.224-0.058s0.088-0.093 0.107-0.162c0.011-0.042 0.016-0.132 0.015-0.267-0.091 0.107-0.205 0.161-0.341 0.161-0.169 0-0.3-0.061-0.393-0.183s-0.139-0.268-0.139-0.439c0-0.117 0.021-0.226 0.064-0.325s0.104-0.176 0.185-0.23 0.176-0.081 0.284-0.081c0.145 0 0.265 0.059 0.359 0.176v-0.148h0.192v1.063c0 0.191-0.020 0.327-0.058 0.407s-0.101 0.143-0.185 0.189c-0.085 0.046-0.189 0.070-0.312 0.070-0.147 0-0.265-0.033-0.356-0.099s-0.134-0.166-0.131-0.298zM17.711 25.522c0 0.161 0.032 0.279 0.096 0.353s0.144 0.111 0.241 0.111c0.096 0 0.176-0.037 0.241-0.111s0.097-0.189 0.097-0.347c0-0.151-0.033-0.264-0.1-0.34s-0.147-0.115-0.241-0.115c-0.093 0-0.172 0.038-0.236 0.113s-0.097 0.187-0.097 0.335zM18.896 26.159v-1.23h0.188v0.175c0.090-0.135 0.221-0.203 0.392-0.203 0.074 0 0.142 0.013 0.204 0.040s0.109 0.062 0.14 0.105c0.031 0.043 0.052 0.095 0.065 0.154 0.008 0.038 0.012 0.106 0.012 0.203v0.756h-0.208v-0.748c0-0.085-0.008-0.148-0.024-0.19s-0.045-0.076-0.086-0.101-0.090-0.038-0.145-0.038c-0.089 0-0.166 0.028-0.23 0.084s-0.097 0.163-0.097 0.321v0.672h-0.209z"></path>
<path fill="#fff" style="fill: var(--color1, #fff)" d="M13.66 20.958v0.486h-1.271v0.608h1.102v0.45h-1.102v1.087h-0.579v-2.631h1.85zM15.414 20.958c0.118 0 0.224 0.019 0.319 0.057s0.175 0.091 0.243 0.157l-0-0c0.065 0.064 0.118 0.14 0.153 0.226l0.002 0.005c0.034 0.082 0.053 0.177 0.053 0.276 0 0.002 0 0.004-0 0.006v-0c0 0.155-0.032 0.289-0.098 0.402s-0.171 0.199-0.319 0.258v0.007c0.071 0.020 0.13 0.050 0.177 0.090s0.085 0.089 0.114 0.144c0.029 0.055 0.051 0.116 0.064 0.183s0.023 0.133 0.028 0.199c0.003 0.042 0.005 0.091 0.007 0.148s0.007 0.114 0.013 0.173c0.006 0.059 0.016 0.115 0.029 0.168s0.034 0.098 0.061 0.134h-0.579c-0.032-0.083-0.052-0.183-0.059-0.299-0.008-0.129-0.020-0.243-0.036-0.356l0.003 0.024c-0.020-0.138-0.061-0.238-0.125-0.302s-0.168-0.096-0.313-0.096h-0.579v1.028h-0.579v-2.631h1.418zM15.208 22.148c0.133 0 0.232-0.029 0.299-0.088s0.1-0.155 0.1-0.287c0-0.128-0.033-0.22-0.1-0.278s-0.166-0.087-0.299-0.087h-0.634v0.741h0.634zM18.624 20.958v0.486h-1.389v0.564h1.275v0.45h-1.275v0.645h1.419v0.486h-1.997v-2.631h1.968zM21.012 20.958v0.486h-1.389v0.564h1.275v0.45h-1.275v0.645h1.419v0.486h-1.997v-2.631h1.968z"></path>
<path fill="#fff" style="fill: var(--color1, #fff)" d="M13.313 12.307l2.344-2.344-0.768-0.769-1.075 1.075c-0.025 0.025-0.059 0.041-0.098 0.041s-0.073-0.015-0.097-0.040v0l-0.195-0.195c-0.025-0.025-0.040-0.060-0.040-0.098s0.015-0.073 0.040-0.098l1.074-1.074-0.586-0.586c-0.1-0.1-0.238-0.162-0.391-0.162s-0.291 0.062-0.391 0.162v0l-1.563 1.562c-0.1 0.1-0.162 0.238-0.162 0.391s0.062 0.291 0.162 0.391v0l1.745 1.745zM20.080 10.273c0.151-0.151 0.245-0.361 0.245-0.592s-0.094-0.44-0.245-0.592v0l-0.788-0.788c-0.151-0.151-0.361-0.245-0.592-0.245s-0.44 0.094-0.592 0.245l-0.802 0.801 1.972 1.972 0.801-0.802zM16.913 9.497l-5.174 5.173-0.327 1.872c-0.004 0.019-0.005 0.041-0.005 0.064 0 0.204 0.166 0.37 0.37 0.37 0.023 0 0.045-0.002 0.066-0.006l-0.002 0 1.872-0.328 5.172-5.172-1.972-1.972zM20.164 14.469l-0.586-0.586-1.074 1.074c-0.025 0.025-0.059 0.040-0.098 0.040s-0.073-0.015-0.098-0.040v0l-0.195-0.195c-0.025-0.025-0.040-0.060-0.040-0.098s0.015-0.073 0.040-0.098l1.074-1.074-0.769-0.769-2.345 2.344 1.746 1.745c0.1 0.1 0.238 0.162 0.391 0.162s0.291-0.062 0.391-0.162l1.563-1.562c0.1-0.1 0.162-0.238 0.162-0.391s-0.062-0.291-0.162-0.391v0z"></path>
</symbol>
</defs>
</svg>
